<svg width="20" height="20" viewBox="0 0 20 20" fill="none" xmlns="http://www.w3.org/2000/svg">
<path d="M6.68422 8.57895C8.77709 8.57895 10.4737 6.88234 10.4737 4.78947C10.4737 2.69661 8.77709 1 6.68422 1C4.59135 1 2.89474 2.69661 2.89474 4.78947C2.89474 6.88234 4.59135 8.57895 6.68422 8.57895Z" stroke="black" stroke-width="2" stroke-linecap="round" stroke-linejoin="round"/>
<path d="M1 18.0526V16.1579C1 15.1529 1.39925 14.189 2.10991 13.4783C2.82058 12.7677 3.78444 12.3684 4.78947 12.3684H8.57895C9.58398 12.3684 10.5478 12.7677 11.2585 13.4783C11.9692 14.189 12.3684 15.1529 12.3684 16.1579V18.0526" stroke="black" stroke-width="2" stroke-linecap="round" stroke-linejoin="round"/>
<path d="M13.3158 8.57892H19M16.1579 5.73682V11.421" stroke="black" stroke-width="2" stroke-linecap="round" stroke-linejoin="round"/>
</svg>
